<svg xmlns="http://www.w3.org/2000/svg" width="29" height="23" viewBox="0 0 29 23">
    <g fill="#E94A4A" fill-rule="evenodd">
        <path d="M2.783 6.782c.367.25 1.473.992 3.318 2.226a812.773 812.773 0 0 1 4.24 2.852c.108.073.337.232.688.476.35.245.641.443.873.594.232.151.513.32.842.508.33.187.64.328.93.421.292.094.562.141.81.141h.032c.248 0 .518-.047.81-.14a4.97 4.97 0 0 0 .93-.422c.329-.188.61-.357.842-.508.232-.15.523-.349.873-.594s.58-.403.688-.476c.993-.667 3.517-2.36 7.574-5.079a7.558 7.558 0 0 0 1.974-1.922C28.736 4.11 29 3.323 29 2.5c0-.687-.256-1.276-.769-1.766A2.547 2.547 0 0 0 26.411 0H2.589C1.76 0 1.12.27.672.812.224 1.354 0 2.032 0 2.844 0 3.5.297 4.21.89 4.977c.593.765 1.225 1.367 1.893 1.805z"/>
        <path d="M27.381 9.368c-3.538 2.327-6.225 4.135-8.058 5.424-.615.44-1.114.784-1.497 1.03-.383.247-.893.498-1.53.755-.636.257-1.23.385-1.78.385h-.032c-.55 0-1.144-.128-1.78-.385-.637-.257-1.147-.508-1.53-.755-.382-.246-.882-.59-1.496-1.03-1.457-1.037-4.138-2.846-8.043-5.424A8.508 8.508 0 0 1 0 8v12.484c0 .692.253 1.284.76 1.777A2.53 2.53 0 0 0 2.59 23h23.82a2.53 2.53 0 0 0 1.83-.74c.507-.492.76-1.084.76-1.776V8a8.854 8.854 0 0 1-1.619 1.368z"/>
    </g>
</svg>
