<svg xmlns="http://www.w3.org/2000/svg" width="24" height="24" viewBox="0 0 24 24">
    <path fill="#FFF" fill-rule="nonzero" d="M4.085 23.333h7.61V15.04H8.961v-2.734h2.734V8.887a3.422 3.422 0 0 1 3.418-3.418h3.418v2.734h-2.734c-.754 0-1.367.613-1.367 1.367v2.735h3.978l-.456 2.734H14.43v8.294h6.152A3.422 3.422 0 0 0 24 19.915V3.418A3.422 3.422 0 0 0 20.582 0H4.085A3.422 3.422 0 0 0 .667 3.418v16.497a3.422 3.422 0 0 0 3.418 3.418zM2.034 3.418c0-1.13.92-2.05 2.05-2.05h16.498c1.13 0 2.05.92 2.05 2.05v16.497c0 1.131-.92 2.051-2.05 2.051h-4.785v-5.56h3.313l.912-5.468h-4.225V9.57h4.101V4.102h-4.785a4.79 4.79 0 0 0-4.785 4.785v2.05H7.594v5.47h2.734v5.56H4.085c-1.131 0-2.051-.92-2.051-2.052V3.418z" opacity=".502"/>
</svg>
