<svg xmlns="http://www.w3.org/2000/svg" width="25" height="34" viewBox="0 0 25 34">
    <path fill="#E94A4A" fill-rule="nonzero" d="M24.41 8.462c-.13-.453-.392-.937-.586-1.36C21.502 1.874 16.428 0 12.33 0 6.847 0 .806 3.445 0 10.547v1.451c0 .06.022.605.054.877.452 3.384 3.303 6.981 5.431 10.366 2.29 3.626 4.667 7.193 7.022 10.759 1.452-2.327 2.899-4.684 4.317-6.951.387-.665.836-1.33 1.223-1.965.258-.423.751-.845.976-1.239C21.313 19.917 25 15.958 25 12.06v-1.602c0-.423-.56-1.904-.59-1.995zm-12.083 7.08c-1.597 0-3.346-.758-4.209-2.853C7.99 12.356 8 11.687 8 11.626v-.94C8 8.014 10.388 6.8 12.465 6.8 15.022 6.8 17 8.743 17 11.172c0 2.428-2.116 4.37-4.673 4.37z"/>
</svg>
