<svg xmlns="http://www.w3.org/2000/svg" width="24" height="24" viewBox="0 0 24 24">
    <g fill="#FFF" fill-rule="evenodd" opacity=".502">
        <path fill-rule="nonzero" d="M16.042 0h-8.75A7.292 7.292 0 0 0 0 7.292v8.75a7.292 7.292 0 0 0 7.292 7.291h8.75a7.292 7.292 0 0 0 7.291-7.291v-8.75A7.292 7.292 0 0 0 16.042 0zm5.104 16.042a5.11 5.11 0 0 1-5.104 5.104h-8.75a5.11 5.11 0 0 1-5.104-5.104v-8.75a5.11 5.11 0 0 1 5.104-5.104h8.75a5.11 5.11 0 0 1 5.104 5.104v8.75z"/>
        <path fill-rule="nonzero" d="M11.667 5.833a5.834 5.834 0 1 0 0 11.668 5.834 5.834 0 0 0 0-11.668zm0 9.48a3.65 3.65 0 0 1-3.646-3.646 3.65 3.65 0 0 1 3.646-3.646 3.65 3.65 0 0 1 3.646 3.646 3.65 3.65 0 0 1-3.646 3.646z"/>
        <circle cx="17.938" cy="5.396" r="1"/>
    </g>
</svg>
