<svg xmlns="http://www.w3.org/2000/svg" xmlns:xlink="http://www.w3.org/1999/xlink" width="115" height="33" viewBox="0 0 115 33">
    <defs>
        <path id="a" d="M0 32.36h119.8V0H0z"/>
    </defs>
    <g fill="none" fill-rule="evenodd">
        <path fill="#FFF" d="M27.953 19.47v-2.467h1.445c.556 0 1.002.085 1.336.258.336.174.502.484.502.93 0 .263-.054.479-.166.648a1.168 1.168 0 0 1-.436.388 1.98 1.98 0 0 1-.59.19 3.717 3.717 0 0 1-.632.054h-1.46zm0-6.613h1.276c.547 0 .96.085 1.24.253.277.167.418.434.418.798 0 .388-.136.68-.403.879-.27.195-.646.295-1.133.295h-1.398v-2.225zm3.29 8.556c.493-.108.93-.28 1.317-.526.383-.244.692-.566.925-.967.235-.402.352-.896.352-1.486 0-.354-.06-.674-.176-.96a2.429 2.429 0 0 0-1.17-1.271 3.008 3.008 0 0 0-.86-.283v-.03c.528-.174.953-.453 1.277-.846.325-.391.488-.885.488-1.485 0-.548-.114-1-.337-1.356a2.504 2.504 0 0 0-.866-.846 3.76 3.76 0 0 0-1.185-.441 6.518 6.518 0 0 0-1.276-.13h-4.288v10.788h4.288c.517 0 1.02-.055 1.511-.161zM37.59 20.651a4.16 4.16 0 0 0 1.445.89c.567.214 1.205.32 1.915.32.7 0 1.336-.106 1.907-.32a4.286 4.286 0 0 0 1.468-.89 3.86 3.86 0 0 0 .935-1.371 4.651 4.651 0 0 0 .326-1.775v-6.718H42.99v6.504c0 .295-.038.576-.107.839-.072.264-.188.5-.351.709a1.71 1.71 0 0 1-.631.496c-.257.121-.57.18-.935.18-.364 0-.676-.059-.933-.18a1.649 1.649 0 0 1-.624-.496 2.165 2.165 0 0 1-.35-.71 3.083 3.083 0 0 1-.115-.838v-6.504H36.36v6.718c0 .65.106 1.242.32 1.775.212.533.516.99.91 1.371"/>
        <mask id="b" fill="#fff">
            <use xlink:href="#a"/>
        </mask>
        <path fill="#FFF" d="M48.595 21.574h2.616V10.787h-2.616zM61.122 19.302h-4.164v-8.515h-2.615v10.787h6.78zM65.789 19.317v-6.306h1.294c.445 0 .878.05 1.299.151a3.2 3.2 0 0 1 1.126.511c.328.239.591.558.789.96.198.401.297.908.297 1.515 0 .6-.1 1.103-.297 1.51a2.59 2.59 0 0 1-.79.975c-.331.243-.71.419-1.14.526-.43.106-.88.158-1.346.158h-1.232zm3.664 1.945a5.757 5.757 0 0 0 1.937-.975 4.925 4.925 0 0 0 1.384-1.691c.35-.687.524-1.503.524-2.448 0-1.014-.176-1.867-.532-2.56-.354-.688-.819-1.239-1.398-1.65a5.648 5.648 0 0 0-1.977-.886 9.658 9.658 0 0 0-2.249-.265H63.25v10.787h4.013c.74 0 1.47-.104 2.19-.312zM75.928 21.574h2.615V10.787h-2.615zM84.138 14.519h.047l4.332 7.055h2.947V10.787h-2.521l.06 7.037h-.046l-4.317-7.037h-2.964v10.787h2.523zM95.76 20.28a5.487 5.487 0 0 0 1.867 1.155 6.66 6.66 0 0 0 2.38.412c.832 0 1.599-.087 2.304-.258a8.457 8.457 0 0 0 1.846-.67v-5.713h-4.439v2.1h2.054v1.967a3.198 3.198 0 0 1-.76.22c-.275.047-.564.07-.868.07-.527 0-.995-.084-1.406-.253a2.849 2.849 0 0 1-1.034-.7 3.007 3.007 0 0 1-.631-1.073 4.262 4.262 0 0 1-.213-1.371c0-.489.08-.938.235-1.35a3.2 3.2 0 0 1 .663-1.066 3.037 3.037 0 0 1 2.264-.952c.527 0 1 .094 1.416.28.413.189.749.432 1.001.724l1.644-1.872c-.458-.436-1.05-.787-1.78-1.044a7.017 7.017 0 0 0-2.372-.39c-.82 0-1.586.132-2.294.397a5.462 5.462 0 0 0-1.855 1.136 5.204 5.204 0 0 0-1.24 1.788c-.3.702-.448 1.486-.448 2.349 0 .852.146 1.626.44 2.323a5.311 5.311 0 0 0 1.225 1.79M111.386 19.44c-.136.09-.296.157-.48.197a2.48 2.48 0 0 1-.561.062c-.426 0-.854-.109-1.284-.327a3.157 3.157 0 0 1-1.042-.817l-1.703 1.74c.476.495 1.074.88 1.794 1.15a6.36 6.36 0 0 0 2.235.401c.527 0 1.04-.069 1.536-.213.495-.141.935-.36 1.321-.654.386-.296.693-.668.92-1.119.228-.454.342-.99.342-1.61 0-.537-.106-.986-.319-1.346a3.068 3.068 0 0 0-.806-.907 4.233 4.233 0 0 0-1.08-.586 30.792 30.792 0 0 0-1.14-.403c-.252-.083-.48-.162-.683-.239a2.792 2.792 0 0 1-.524-.25 1.03 1.03 0 0 1-.334-.32.842.842 0 0 1-.114-.457c0-.213.047-.388.143-.525.097-.139.216-.25.356-.335.144-.086.303-.146.48-.176.179-.03.352-.044.525-.044.334 0 .68.081 1.042.25.359.166.65.395.874.677l1.657-1.75a4.848 4.848 0 0 0-1.665-.993 5.59 5.59 0 0 0-1.863-.334c-.505 0-1.007.064-1.505.19a4.092 4.092 0 0 0-1.338.603 3.214 3.214 0 0 0-.957 1.052c-.243.426-.364.94-.364 1.537 0 .488.079.902.234 1.242.159.34.367.63.624.868.26.238.552.434.881.588.33.15.668.283 1.012.394.354.114.67.216.95.313.28.097.512.203.7.32.186.118.332.248.433.389a.864.864 0 0 1 .151.518c0 .214-.04.397-.12.548a.998.998 0 0 1-.328.367M20.338 10.787H16.43L3.495 2.195h16.843v8.592zm0 10.787v8.592H3.495l12.936-8.592h3.907zm-5.32-1.695L2.19 28.399V3.962l12.829 8.521v7.397zM2.19 32.36h20.338V19.35h-5v-2.24h5v-2.088h-5v-2.04h5V0H0V32.36H2.19z" mask="url(#b)"/>
    </g>
</svg>
