<svg xmlns="http://www.w3.org/2000/svg" width="28" height="28" viewBox="0 0 28 28">
    <path fill="#E94A4A" fill-rule="nonzero" d="M14 0C6.27 0 0 6.269 0 14s6.269 14 14 14c7.732 0 14-6.269 14-14S21.732 0 14 0zm7.51 20.53l-1.139 1.14c-.203.203-.798.33-.818.33a13.437 13.437 0 0 1-9.618-3.933A13.458 13.458 0 0 1 6 8.413c0-.002.13-.58.333-.781l1.139-1.14c.416-.418 1.217-.607 1.778-.42l.239.08c.56.188 1.146.806 1.3 1.376l.573 2.102c.155.571-.054 1.384-.47 1.8l-.76.761a8.077 8.077 0 0 0 5.678 5.682l.76-.761c.419-.419 1.23-.627 1.8-.473l2.103.575c.57.157 1.187.74 1.374 1.3l.08.242c.186.56-.002 1.36-.418 1.775z"/>
</svg>
